<?xml version="1.0" encoding="utf-8"?>
<!-- Svg Vector Icons : http://www.onlinewebfonts.com/icon -->
<!DOCTYPE svg PUBLIC "-//W3C//DTD SVG 1.1//EN" "http://www.w3.org/Graphics/SVG/1.1/DTD/svg11.dtd">
<svg version="1.1" xmlns="http://www.w3.org/2000/svg" xmlns:xlink="http://www.w3.org/1999/xlink" x="0px" y="0px" viewBox="0 0 1000 1000" enable-background="new 0 0 1000 1000" xml:space="preserve">
<metadata> Svg Vector Icons : http://www.onlinewebfonts.com/icon </metadata>
<g><path d="M563.1,123.9c38,0,68.8,31.1,68.8,69.4v28.9h280.9c25.4,0,45.9,28.9,45.9,52.1c0,0,0,109.8,0,179.4c-182.3,47.1-323.2,70.8-462.8,70.8c-139.5,0-277.7-23.5-454.6-70.8c0-67.9,0-179.4,0-179.4c0-24.4,20.5-52.1,45.9-52.1h280.9l0-28.9c0-38.4,30.8-69.4,68.8-69.4H563.1 M414,222.2h172v-11.6c0-25.5-20.5-46.3-45.9-46.3h-80.2c-25.4,0-45.9,20.7-45.9,46.3L414,222.2 M958.6,488.4c0,131.1,0,262.2,0,333.4c0,33.7-20.2,54.3-51.7,54.3c-163.5,0-661.8,0-818.4,0c-32,0-47.2-24.3-47.2-52c0-69.2,0-203.2,0-335.7C185.9,527,305,550.8,419.7,557.8c0,13.7,0,54.1,0,74.5c0,7,4.9,12.2,11.1,12.2c28.8,0,105.8,0,136.5,0c7.3,0,13-5.8,13-13c0-22.2,0-65.7,0-73.8C693.6,550.3,812.9,526.1,958.6,488.4 M536.3,559c8.8,0,15.3,0.8,15.3,10.3v31c0,11.4-9.3,15.5-20.7,15.5H469c-11.4,0-20.7-4.1-20.7-15.5v-31c0-9.6,6.5-10.3,15.4-10.3c1.7,0,3.4,0,5.3,0h61.9C532.8,559,534.6,559,536.3,559 M563.1,92.6H436.9c-54.4,0-98.8,43.9-100.1,98.4H87.2c-45.5,0-77.2,44-77.2,83.4v179.4v24v10.6v335.7c0,49.1,32.3,83.4,78.5,83.4h818.4c48.9,0,83-35.3,83-85.7V488.4V478h0.1v-24.2V274.3c0-39.4-33-83.4-77.2-83.4H663.2C661.9,136.5,617.5,92.6,563.1,92.6L563.1,92.6z"/></g>
</svg>